<mxfile host="Electron" agent="Mozilla/5.0 (Windows NT 10.0; Win64; x64) AppleWebKit/537.36 (KHTML, like Gecko) draw.io/26.2.2 Chrome/134.0.6998.178 Electron/35.1.2 Safari/537.36" version="26.2.2">
  <diagram name="Page-1" id="i3iLmMc7BVoPF5nN5aRh">
    <mxGraphModel dx="466" dy="832" grid="1" gridSize="10" guides="1" tooltips="1" connect="1" arrows="1" fold="1" page="1" pageScale="1" pageWidth="850" pageHeight="1100" math="0" shadow="0">
      <root>
        <mxCell id="0" />
        <mxCell id="1" parent="0" />
        <mxCell id="Iot0KCKpyoNiLRGqlaFP-10" value="" style="edgeStyle=orthogonalEdgeStyle;rounded=0;orthogonalLoop=1;jettySize=auto;html=1;" edge="1" parent="1" source="Iot0KCKpyoNiLRGqlaFP-1" target="Iot0KCKpyoNiLRGqlaFP-2">
          <mxGeometry relative="1" as="geometry" />
        </mxCell>
        <mxCell id="Iot0KCKpyoNiLRGqlaFP-1" value="&lt;b&gt;Load Image from Path&lt;/b&gt;" style="rounded=0;whiteSpace=wrap;html=1;fillColor=#e1d5e7;strokeColor=#9673a6;" vertex="1" parent="1">
          <mxGeometry x="160" y="90" width="170" height="60" as="geometry" />
        </mxCell>
        <mxCell id="Iot0KCKpyoNiLRGqlaFP-11" value="" style="edgeStyle=orthogonalEdgeStyle;rounded=0;orthogonalLoop=1;jettySize=auto;html=1;" edge="1" parent="1" source="Iot0KCKpyoNiLRGqlaFP-2" target="Iot0KCKpyoNiLRGqlaFP-3">
          <mxGeometry relative="1" as="geometry" />
        </mxCell>
        <mxCell id="Iot0KCKpyoNiLRGqlaFP-2" value="&lt;div style=&quot;text-align: center;&quot;&gt;&lt;b style=&quot;background-color: transparent; color: light-dark(rgb(51, 51, 51), rgb(193, 193, 193));&quot;&gt;Enhance Image using CLAHE&amp;nbsp;&amp;nbsp;&lt;/b&gt;&lt;/div&gt;&lt;div&gt;&lt;ul&gt;&lt;li style=&quot;&quot;&gt;Convert to LAB color space&amp;nbsp;&lt;/li&gt;&lt;li&gt;Apply CLAHE on L-channel&lt;/li&gt;&lt;li&gt;&amp;nbsp;Merge channels and convert back to BGR&amp;nbsp;&lt;/li&gt;&lt;/ul&gt;&lt;/div&gt;" style="rounded=0;whiteSpace=wrap;html=1;align=left;fillColor=#f5f5f5;fontColor=#333333;strokeColor=#666666;" vertex="1" parent="1">
          <mxGeometry x="160" y="190" width="170" height="210" as="geometry" />
        </mxCell>
        <mxCell id="Iot0KCKpyoNiLRGqlaFP-12" value="" style="edgeStyle=orthogonalEdgeStyle;rounded=0;orthogonalLoop=1;jettySize=auto;html=1;" edge="1" parent="1" source="Iot0KCKpyoNiLRGqlaFP-3" target="Iot0KCKpyoNiLRGqlaFP-4">
          <mxGeometry relative="1" as="geometry" />
        </mxCell>
        <mxCell id="Iot0KCKpyoNiLRGqlaFP-3" value="&lt;b&gt;Save Enhanced Image&amp;nbsp;&lt;/b&gt;" style="rounded=0;whiteSpace=wrap;html=1;fillColor=#e1d5e7;strokeColor=#9673a6;" vertex="1" parent="1">
          <mxGeometry x="160" y="450" width="170" height="60" as="geometry" />
        </mxCell>
        <mxCell id="Iot0KCKpyoNiLRGqlaFP-13" value="" style="edgeStyle=orthogonalEdgeStyle;rounded=0;orthogonalLoop=1;jettySize=auto;html=1;" edge="1" parent="1" source="Iot0KCKpyoNiLRGqlaFP-4" target="Iot0KCKpyoNiLRGqlaFP-5">
          <mxGeometry relative="1" as="geometry" />
        </mxCell>
        <mxCell id="Iot0KCKpyoNiLRGqlaFP-4" value="&lt;b&gt;Load Custom YOLOv8 Model&amp;nbsp;&lt;/b&gt;&lt;div&gt;&lt;br&gt;&lt;/div&gt;" style="rounded=0;whiteSpace=wrap;html=1;fillColor=#f5f5f5;fontColor=#333333;strokeColor=#666666;" vertex="1" parent="1">
          <mxGeometry x="160" y="550" width="170" height="60" as="geometry" />
        </mxCell>
        <mxCell id="Iot0KCKpyoNiLRGqlaFP-14" value="" style="edgeStyle=orthogonalEdgeStyle;rounded=0;orthogonalLoop=1;jettySize=auto;html=1;" edge="1" parent="1" source="Iot0KCKpyoNiLRGqlaFP-5" target="Iot0KCKpyoNiLRGqlaFP-6">
          <mxGeometry relative="1" as="geometry" />
        </mxCell>
        <mxCell id="Iot0KCKpyoNiLRGqlaFP-5" value="&lt;div&gt;&lt;b&gt;Perform Prediction on Enhanced Image&lt;/b&gt;&lt;/div&gt;&lt;div&gt;&lt;ul&gt;&lt;li style=&quot;text-align: left;&quot;&gt;Set confidence threshold: 0.5&amp;nbsp; &amp;nbsp; &amp;nbsp; &amp;nbsp; &amp;nbsp;&lt;/li&gt;&lt;li style=&quot;text-align: left;&quot;&gt;Set IoU threshold: 0.9&amp;nbsp; &amp;nbsp;&amp;nbsp;&lt;/li&gt;&lt;/ul&gt;&lt;/div&gt;" style="rounded=0;whiteSpace=wrap;html=1;fillColor=#e1d5e7;strokeColor=#9673a6;" vertex="1" parent="1">
          <mxGeometry x="160" y="640" width="170" height="130" as="geometry" />
        </mxCell>
        <mxCell id="Iot0KCKpyoNiLRGqlaFP-15" value="" style="edgeStyle=orthogonalEdgeStyle;rounded=0;orthogonalLoop=1;jettySize=auto;html=1;" edge="1" parent="1" source="Iot0KCKpyoNiLRGqlaFP-6" target="Iot0KCKpyoNiLRGqlaFP-8">
          <mxGeometry relative="1" as="geometry" />
        </mxCell>
        <mxCell id="Iot0KCKpyoNiLRGqlaFP-6" value="&lt;div&gt;&lt;span style=&quot;background-color: transparent;&quot;&gt;&lt;b&gt;Process Results&amp;nbsp; &amp;nbsp;&lt;/b&gt;&lt;/span&gt;&lt;/div&gt;&lt;div&gt;&lt;span style=&quot;background-color: transparent; text-align: left; color: light-dark(rgb(0, 0, 0), rgb(255, 255, 255));&quot;&gt;&lt;br&gt;&lt;/span&gt;&lt;/div&gt;&lt;div&gt;&lt;ul&gt;&lt;li style=&quot;text-align: left;&quot;&gt;&lt;span style=&quot;background-color: transparent; color: light-dark(rgb(0, 0, 0), rgb(255, 255, 255));&quot;&gt;Draw bounding boxes on detected items&lt;/span&gt;&lt;font style=&quot;background-color: transparent;&quot; color=&quot;rgba(0, 0, 0, 0)&quot;&gt;&amp;nbsp; &amp;nbsp; &amp;nbsp; &amp;nbsp; &amp;nbsp;&lt;/font&gt;&lt;/li&gt;&lt;li style=&quot;text-align: left;&quot;&gt;Convert BGR to RGB for matplotlib &amp;nbsp;&amp;nbsp;&lt;/li&gt;&lt;/ul&gt;&lt;/div&gt;" style="rounded=0;whiteSpace=wrap;html=1;fillColor=#f5f5f5;fontColor=#333333;strokeColor=#666666;" vertex="1" parent="1">
          <mxGeometry x="160" y="800" width="170" height="130" as="geometry" />
        </mxCell>
        <mxCell id="Iot0KCKpyoNiLRGqlaFP-16" value="" style="edgeStyle=orthogonalEdgeStyle;rounded=0;orthogonalLoop=1;jettySize=auto;html=1;" edge="1" parent="1" source="Iot0KCKpyoNiLRGqlaFP-8" target="Iot0KCKpyoNiLRGqlaFP-9">
          <mxGeometry relative="1" as="geometry" />
        </mxCell>
        <mxCell id="Iot0KCKpyoNiLRGqlaFP-8" value="&lt;b&gt;Display Image with Bounding Boxes&lt;/b&gt;" style="rounded=0;whiteSpace=wrap;html=1;fillColor=#e1d5e7;strokeColor=#9673a6;" vertex="1" parent="1">
          <mxGeometry x="160" y="960" width="170" height="60" as="geometry" />
        </mxCell>
        <mxCell id="Iot0KCKpyoNiLRGqlaFP-9" value="&lt;div style=&quot;&quot;&gt;&lt;b&gt;Print Detected Object Info&amp;nbsp; &amp;nbsp; &amp;nbsp; &amp;nbsp;&lt;/b&gt;&lt;/div&gt;&lt;div style=&quot;&quot;&gt;&lt;ul&gt;&lt;li style=&quot;&quot;&gt;Class name&amp;nbsp; &amp;nbsp; &amp;nbsp; &amp;nbsp; &amp;nbsp; &amp;nbsp; &amp;nbsp; &amp;nbsp; &amp;nbsp; &amp;nbsp; &amp;nbsp;&lt;/li&gt;&lt;li&gt;&amp;nbsp;Confidence score&amp;nbsp; &amp;nbsp; &amp;nbsp; &amp;nbsp; &amp;nbsp; &amp;nbsp; &amp;nbsp; &amp;nbsp;&lt;/li&gt;&lt;li style=&quot;text-align: left;&quot;&gt;&amp;nbsp;Bounding box coordinates&amp;nbsp;&amp;nbsp;&lt;/li&gt;&lt;/ul&gt;&lt;/div&gt;" style="rounded=0;whiteSpace=wrap;html=1;fillColor=#f5f5f5;fontColor=#333333;strokeColor=#666666;" vertex="1" parent="1">
          <mxGeometry x="160" y="1050" width="170" height="140" as="geometry" />
        </mxCell>
      </root>
    </mxGraphModel>
  </diagram>
</mxfile>
